<svg width="100" height="25" viewBox="0 0 100 25" fill="none" xmlns="http://www.w3.org/2000/svg">
<path d="M3.78946 14.4883H9.97439C12.7215 14.4883 14.9477 12.2745 14.9477 9.54286V1.03833L3.78946 14.4883Z" fill="url(#paint0_linear_536_485)"/>
<path d="M2.86419 9.79713C1.99623 8.74897 1.80295 7.35379 2.25751 6.15259C0.152918 9.37004 -0.446604 13.6499 1.44681 18.008C2.5349 20.5101 4.53928 22.5139 7.05369 23.6048C9.8276 24.8095 12.5693 25.016 15.0318 24.4785L2.86419 9.79713Z" fill="url(#paint1_linear_536_485)"/>
<path d="M2.60301 15.958C2.11982 16.483 1.72073 18.1665 2.17708 19.3659C0.942247 17.4778 0.224609 15.2266 0.224609 12.8082C0.224609 6.15264 5.64895 0.758789 12.3421 0.758789C13.2369 0.758789 14.1103 0.854885 14.9496 1.03818L2.60301 15.958Z" fill="url(#paint2_linear_536_485)"/>
<path d="M40.0998 24.0879H23V1.06567H39.9996V4.64971H26.7045V10.8657H39.4717V14.286H26.7045V20.4682H40.0998V24.0861V24.0879Z" fill="#2C2C2C"/>
<path d="M55.1954 7.87444H58.5026V24.088H55.2616L55.0969 21.4578C54.5905 22.4437 53.8013 23.2 52.7329 23.7268C51.6627 24.2535 50.5782 24.5169 49.4758 24.5169C47.0276 24.5383 45.0214 23.7926 43.4573 22.28C41.8913 20.7674 41.1093 18.6621 41.1093 15.9661C41.1093 13.2701 41.9092 11.2681 43.5074 9.76611C45.1055 8.26416 47.117 7.51318 49.5438 7.51318C50.7124 7.51318 51.804 7.77656 52.8188 8.30331C53.8335 8.83006 54.5941 9.54189 55.1005 10.4406L55.199 7.87444H55.1954ZM46.0343 12.0671C45.0196 13.0423 44.5131 14.3414 44.5131 15.9643C44.5131 17.5873 45.0196 18.8917 46.0343 19.8776C47.049 20.8635 48.3053 21.3582 49.805 21.3582C50.775 21.3582 51.6412 21.1607 52.4018 20.7656C53.1624 20.3705 53.735 19.8562 54.1216 19.2191C54.5082 18.5838 54.7945 17.888 54.9824 17.1299C55.1703 16.3736 55.1703 15.612 54.9824 14.845C54.7945 14.078 54.5082 13.3768 54.1216 12.7398C53.735 12.1045 53.1624 11.5884 52.4018 11.1933C51.6412 10.7983 50.775 10.6007 49.805 10.6007C48.3053 10.6007 47.049 11.0883 46.0343 12.0635V12.0671Z" fill="#2C2C2C"/>
<path d="M73.8915 7.87427V9.45274L65.6897 20.7654H73.9577V24.0879H60.464V22.7069L68.8984 10.9654H61.0277V7.87427H73.8933H73.8915Z" fill="#2C2C2C"/>
<path d="M77.3651 1.26293C78.0702 0.912357 78.7771 0.912357 79.4822 1.26293C80.1873 1.6135 80.5399 2.22745 80.5399 3.10478C80.5399 3.9821 80.1873 4.60139 79.4822 4.96264C78.7771 5.32389 78.0702 5.32389 77.3651 4.96264C76.66 4.60139 76.3074 3.9821 76.3074 3.10478C76.3074 2.22745 76.66 1.6135 77.3651 1.26293ZM76.7029 7.80816V24.0876H80.1086V7.80816H76.7029Z" fill="#2C2C2C"/>
<path d="M97.3604 9.96132C98.9371 11.5736 99.7245 13.5845 99.7245 15.9958C99.7245 18.4071 98.9478 20.4412 97.3926 22.0303C95.8374 23.6195 93.7937 24.4149 91.2578 24.4149C88.7219 24.4149 86.7157 23.6195 85.1731 22.0303C83.6304 20.4412 82.8573 18.4285 82.8573 15.9958C82.8573 13.5632 83.634 11.5451 85.1892 9.94531C86.7444 8.34548 88.7666 7.54468 91.2578 7.54468C93.749 7.54468 95.7838 8.35082 97.3604 9.96132ZM87.6374 12.2143C86.7229 13.2446 86.2648 14.5063 86.2648 15.9958C86.2648 17.4853 86.7175 18.7363 87.6213 19.7454C88.525 20.7544 89.7384 21.258 91.2596 21.258C92.7808 21.258 93.9995 20.7544 94.914 19.7454C95.8285 18.7363 96.2866 17.4871 96.2866 15.9958C96.2866 14.5045 95.8124 13.2713 94.8639 12.2303C93.9154 11.1892 92.7145 10.6678 91.2596 10.6678C89.8046 10.6678 88.5537 11.1839 87.6374 12.2143Z" fill="#2C2C2C"/>
<defs>
<linearGradient id="paint0_linear_536_485" x1="11.313" y1="14.3085" x2="8.01336" y2="3.0765" gradientUnits="userSpaceOnUse">
<stop stop-color="#FF9002"/>
<stop offset="0.57" stop-color="#E93D00"/>
<stop offset="1" stop-color="#960B08"/>
</linearGradient>
<linearGradient id="paint1_linear_536_485" x1="15.0318" y1="15.4561" x2="0.306825" y2="15.4561" gradientUnits="userSpaceOnUse">
<stop stop-color="#FF9002"/>
<stop offset="0.57" stop-color="#E93D00"/>
<stop offset="1" stop-color="#960B08"/>
</linearGradient>
<linearGradient id="paint2_linear_536_485" x1="7.58711" y1="19.3659" x2="7.58711" y2="0.758789" gradientUnits="userSpaceOnUse">
<stop stop-color="#F4D65E"/>
<stop offset="0.57" stop-color="#E5B32E"/>
<stop offset="1" stop-color="#F6822B"/>
</linearGradient>
</defs>
</svg>
